<svg xmlns="http://www.w3.org/2000/svg" viewBox="0 0 502.11 92" fill="none">
  <g transform="scale(1.28)"><path fill="#ffffff" d="M43.91 9.55A24.5 24.5 0 1 0 18.16 48.17L24.1 35.99A11.5 11.5 0 1 1 34.96 19.71ZM30.84 23.83A24.5 24.5 0 1 1 5.19 62.58L14.08 52.36A11.5 11.5 0 1 0 24.9 36.01Z"/></g><g transform="translate(96.61 10)"><path fill="#ffffff" d="M43.91 9.55A24.5 24.5 0 1 0 18.16 48.17L24.1 35.99A11.5 11.5 0 1 1 34.96 19.71ZM30.84 23.83A24.5 24.5 0 1 1 5.19 62.58L14.08 52.36A11.5 11.5 0 1 0 24.9 36.01ZM58 0H71V72H58ZM71 0A23.5 23.5 0 0 1 71 47L71 34A10.5 10.5 0 0 0 71 13ZM122.91 0L136.29 0L118.87 72L105.5 72ZM128.71 0L142.09 0L159.5 72L146.13 72ZM115.5 42H149.5V55H115.5ZM166.5 0H179.5V72H166.5ZM179.5 0A23.5 23.5 0 0 1 179.5 47L179.5 34A10.5 10.5 0 0 0 179.5 13ZM173.14 44L189.86 44L212.5 72L195.78 72ZM222.5 0H235.5V72H222.5ZM226.03 33L242.97 33L270.5 0L253.57 0ZM226.5 33L242.5 33L270.5 72L254.5 72ZM277.5 36A35 36 0 1 1 347.5 36A35 36 0 1 1 277.5 36ZM290.5 36A22 23 0 1 0 334.5 36A22 23 0 1 0 290.5 36ZM400.41 9.55A24.5 24.5 0 1 0 374.66 48.17L380.6 35.99A11.5 11.5 0 1 1 391.46 19.71ZM387.34 23.83A24.5 24.5 0 1 1 361.69 62.58L370.58 52.36A11.5 11.5 0 1 0 381.4 36.01Z"/></g>
</svg>
